<svg id="Calque_1" data-name="Calque 1" xmlns="http://www.w3.org/2000/svg" viewBox="0 0 1885.79 810.54"><defs><style>.cls-1{fill:#f4d5bf;}.cls-2{fill:#d0ac92;}.cls-3{fill:#987353;}</style></defs><path class="cls-1" d="M1292.16,650.76c17.33,17.08,39,28.32,58.27,42.86,29.65,22.42,33,54.15,7.92,81.49-36.74,40-93.29,47.23-138.76,16-64.48-44.3-129.5-88-191.81-135.18C975.62,616.45,919,591.85,854.15,582.71,803.73,575.6,753.79,565.12,703.92,555c-46.77-9.51-83.75-33.11-105-77.27-2.17-4.5-5.22-8.57-7.85-12.84a344.65,344.65,0,0,0-39.46-110c-39.18-68.61-105-89.3-171.61-65.52-78.43,28-153.66,64.77-230.42,97.42C99.84,407.91,50.93,431.11,0,449.48V240.3c21.06-3.72,39.24-14.84,58-23.75C206.47,146.09,358.63,84,509.46,18.87,564.67-5,622.2-3.62,680.28,8.57c40.41,8.49,81.21,15.2,121.84,22.7,26.85,9.83,55.36,12.44,83,18.07,104.29,21.2,208.86,40.89,313.56,59.93,41.68,7.58,82.6,20.16,125.51,20.59l-.22-.12,5.43,3.89c79.48,15.32,158.9,30.89,238.45,45.85,43.63,8.21,79,28.72,102.51,66.55q104.53,168.18,208.26,336.89c12.91,21,8.61,30.47-15.76,39.25-62.24,22.41-145.3-7.55-184.28-67.78-28.62-44.24-55.66-89.47-83.48-134.21-2-3.18-4.6-6-6.92-8.94-12.71-21.71-25.6-43.26-38.09-65.11-6.47-11.34-15.8-16.34-28.78-18.67-49.89-9-99.38-20.25-149.39-28.41-28.72-4.68-56.71-14.45-86.34-13.2-24.73-8.94-47.18-2.43-65.28,14-24,21.7-41.1,49-54.7,78.33-1.21.38-3,.38-3.54,1.19q-39.88,57.86-79.58,115.84c-5,7.24-1.38,11.07,4.72,15.23,20,13.6,39.66,27.6,59.37,41.54,4.44,3.15,8.8,5.14,14.11,2.34,7.43,19.72,27.72,24.74,42.52,35.79C1232,611.6,1260.69,633.2,1292.16,650.76Z"/><path class="cls-2" d="M0,449.48c50.94-18.37,99.84-41.55,149.6-62.73,76.76-32.65,152-69.45,230.42-97.42,66.62-23.78,132.43-3.09,171.61,65.52a344.1,344.1,0,0,1,39.42,110L0,784.18Z"/><path class="cls-3" d="M1292.16,650.76c-31.45-17.56-60.15-39.16-88.87-60.61-14.8-11-35.09-16.07-42.52-35.79,10.76-31.73,21.36-63.51,32.32-95.18,17.48-50.67,17.61-50.64-27.39-81,13.59-29.3,30.73-56.6,54.7-78.33,18.1-16.41,40.55-22.94,65.27-14,2.69,6.2,8.3,9.18,13.63,12.75,38,25.43,75.56,51.35,113.71,76.51,8.12,5.36,13,11.59,14.5,20.92,10.3,62.63,21.11,125.18,30.9,187.89,8.12,52,16.24,103.79,57.36,142.67-13,5.93-26.23,3.61-39.45.88C1408.91,713.66,1362,665.77,1350,598.62c-3.87-21.61-8-43.19-12-64.77l-5.21-1Z"/><path class="cls-2" d="M1515.72,726.6c-41.09-38.88-49.23-90.63-57.35-142.67-9.8-62.69-20.61-125.26-30.9-187.89-1.53-9.3-6.37-15.56-14.5-20.92-38.14-25.16-75.76-51.07-113.71-76.5-5.33-3.58-10.94-6.55-13.63-12.77,29.63-1.24,57.64,8.52,86.34,13.2,50,8.16,99.5,19.43,149.39,28.41,13,2.33,22.31,7.33,28.78,18.67,12.45,21.82,25.36,43.4,38.09,65.11q18.39,110.07,36.79,220.14c6.13,36.69,12.49,73.34,18.3,110.08,2.93,18.6-4,26.43-23.9,27.29-34.28,1.53-62.86-13.35-90-31.9C1524.72,733.68,1520.3,730.05,1515.72,726.6Z"/><path class="cls-2" d="M1324.24,129.86c-42.89-.43-83.81-13-125.51-20.59-104.7-19-209.29-38.73-313.56-59.93-27.71-5.63-56.24-8.24-83-18.07,79.15-.52,158.29-.38,237.4,2.74,23.6.93,47.41,2.58,70.83.57,63.33-5.42,113.43,23.2,161.6,58.13C1289.26,105.26,1306.81,117.49,1324.24,129.86Z"/></svg>