<svg id="Calque_1" data-name="Calque 1" xmlns="http://www.w3.org/2000/svg" viewBox="0 0 2049.25 950"><defs><style>.cls-1{fill:#f4d5bf;}.cls-2{fill:#d0ac92;}.cls-3{fill:#987353;}.cls-4{fill:#fdaa72;}</style></defs><path class="cls-1" d="M1591.87,455.08a113.44,113.44,0,0,1-11.34,1.32c-37,.75-38.25.52-44.33,37-9.65,57.94-42.92,93.58-98.53,111.81-64.2,21-128,43.26-191.63,66a222.54,222.54,0,0,0-79,49q-94.6,90.12-189.48,180c-40.41,38.32-101.16,43.4-146.08,12.4-34.57-23.85-36.67-51.69-7.12-81.33C840,815.68,858.65,802.81,870,783.19c1.77-.54,3.92-.62,5.27-1.67C914,750.73,945.7,712.46,983.53,680.67c2.17-1.82,2.66-5.58,3.94-8.46,23.58-11.16,36.37-34.73,57.32-49,11.35-7.69,9.6-15.44,1-24.72-16.4-17.71-31.09-37-48.08-54.09-12.82-12.86-21.1-30.32-38.64-38.48-17.16-29.81-41.28-53.4-68.7-73.68-16.94-12.55-36.3-20.08-57.9-20.6-5.37-6.72-12.94-4.08-19.59-4.1q-101.28-.31-202.56-.17c-16.63.05-33.44,1.72-49.84-.15-60.7-6.89-115.3,10.45-169.45,35.64-61.82,28.76-124.89,55-188.38,80.07-66,26-126.48,12.73-180.53-31.81-3.86-3.18-6.82-7.52-9.82-11.59C-7.23,453-4.09,442.54,26,429.88,150.6,377.42,275.05,324.52,399.76,272.22c32.66-13.69,67.28-19.69,102.69-19.84,94.64-.48,189.28-.56,283.92-.8,31.58,1.59,62-4.53,91.57-14.69,61.82-21.24,123.43-43.21,185.21-64.63q94.41-32.72,189-65c7.69-2.64.33-3.56-.56-5.23,57.51-10,109.87-36,165.45-52.09,53.47-15.47,107.67-24.87,163.52-27.25,128.67-5.49,257.28-12.21,385.87-19.43,22.3-1.24,44.59-1.78,66.86-3.18,11-.7,16.07,1.8,15.95,14.21-.67,69-.58,138-.75,206.94-81.65,1-163.29-2-245,3-36.15,2.19-72.37,5.21-108.78,5.26-21.29,0-42.51,6.71-61.67,17.82-39.68,23-60.36,58-68.3,102-4.9,27.22-12.08,54-17.75,81.15-4,18.85-.9,21.94,18.45,22.56C1574.27,453.3,1583.35,450.92,1591.87,455.08Z"/><path class="cls-2" d="M1591.87,455.08c-8.52-4.16-17.6-1.78-26.4-2.06-19.36-.62-22.41-3.72-18.45-22.56,5.67-27.11,12.85-53.95,17.75-81.15,7.94-44,28.62-79,68.3-102,19.16-11.11,40.38-17.78,61.67-17.82,36.41-.05,72.63-3.1,108.78-5.26,81.68-5,163.32-2,245-3,.17,79.05.13,158.12.76,237.18.09,11.88-3.93,15.13-15.43,14.64q-185.35-8-370.74-15.34c-12.11-.49-24.22-.81-36.32-1.24-4.94-4.72-10-4.54-15.13-.34Z"/><path class="cls-2" d="M610.33,407.43q101.29,0,202.57.18c6.65,0,14.22-2.62,19.59,4.09a13.3,13.3,0,0,1-4.75,10c-25.78,23.43-50.84,47.7-77.53,70.07-32.64,27.34-57.54,55.23-53,103.47,6.47,68.52-4.37,137.45-3,206.31.08,4.34-1.4,8.68-1.83,13-2.93,29.77-18.81,54.29-32.64,79.65-19.92,15.67-37.47,34.63-61.83,44.17-4.74,1.86-9.36,4.13-14.17,5.71-39,12.81-48.09,6.25-47.24-33.69q2.73-128.25,5.26-256.5,1.4-65.52,3.22-131c.92-34.57,14-63.87,38.86-88.2C592.9,425.78,603.85,418.75,610.33,407.43Z"/><path class="cls-3" d="M659.72,894.2c13.83-25.35,29.71-49.88,32.64-79.64.43-4.34,1.91-8.68,1.83-13-1.38-68.83,9.5-137.8,3-206.31-4.56-48.24,20.34-76.13,53-103.48,26.69-22.36,51.75-46.63,77.53-70.07a13.26,13.26,0,0,0,4.75-10c21.6.52,41,8.06,57.9,20.6,27.4,20.29,51.52,43.87,68.7,73.68-8.68,7.44-16.83,15.56-26.16,22.06-11.56,8.06-12.49,15.59-5.62,28.15,20.92,38.22,40.24,77.3,60.18,116-1.25,2.87-1.76,6.64-3.93,8.47C945.71,712.49,914,750.77,875.28,781.55c-1.34,1.07-3.5,1.13-5.26,1.66l-59.65-114.1c-1.66,34.25-2,63.76-4.73,93C798.89,834.28,727,898.85,659.72,894.2Z"/><path class="cls-2" d="M1251.59,102c.89,1.66,8.25,2.59.56,5.23q-94.51,32.44-189,65c-61.78,21.42-123.37,43.41-185.21,64.63-29.57,10.16-60,16.28-91.57,14.69C840.07,193.06,902.93,153.88,985,144.2,1074.29,133.68,1162.76,116.36,1251.59,102Z"/><path class="cls-4" d="M1611.63,456.17c5.14-4.19,10.19-4.34,15.13.35Z"/></svg>