<svg id="Calque_1" data-name="Calque 1" xmlns="http://www.w3.org/2000/svg" viewBox="0 0 454.54 386.98"><path d="M227.45,300.38H100.61L74.7,380.5a6,6,0,0,1-6.48,4.78H4.12c-3.75,0-4.77-2-3.75-6.14L110.16,63.08c1-3.41,2-7.16,3.41-11.26a119.41,119.41,0,0,0,2.05-22.16,3.37,3.37,0,0,1,2.72-3.75h88.31c2.73,0,4.09,1,4.43,2.73L335.53,379.82c1,3.75,0,5.46-3.41,5.46H260.86a5.15,5.15,0,0,1-5.45-3.75ZM120.39,231.17H207c-2.05-7.16-4.77-15.69-7.84-24.55-3.07-9.21-6.14-19.1-9.21-29.32-3.41-10.57-6.48-20.8-9.88-31.37s-6.48-20.46-9.21-30.35c-2.73-9.54-5.11-18.41-7.5-26.59h-.68a417.35,417.35,0,0,1-11.6,44c-5.11,16.37-10.22,33.41-15.68,50.46C130.62,200.82,125.5,216.85,120.39,231.17ZM411.56,85.58a42.19,42.19,0,0,1-30.34-11.93,44.33,44.33,0,0,1-11.6-31.37A40.16,40.16,0,0,1,381.9,11.93,43.66,43.66,0,0,1,412.24,0c13.3,0,23.53,4.09,31,11.93a43.08,43.08,0,0,1,11.25,30.35,43.18,43.18,0,0,1-11.93,31.37,40.11,40.11,0,0,1-31,11.93Zm-38.18,296V119c0-3.41,1.36-4.77,4.43-4.77h67.51c3.06,0,4.43,1.7,4.43,4.77V381.53c0,3.75-1.37,5.45-4.43,5.45H378.49C375.08,387,373.38,384.94,373.38,381.53Z"/></svg>