<svg id="Calque_1" data-name="Calque 1" xmlns="http://www.w3.org/2000/svg" viewBox="0 0 458.39 642.84"><path d="M229.46,127H452.34c1.44,0,2.89,0,4.33.14a1.77,1.77,0,0,1,1.67,1.78,4.78,4.78,0,0,1,0,1c-.33,3.21-.69,6.41-1,9.62s-.59,6.2-.88,9.3c-.41,4.2-.83,8.4-1.21,12.61-.3,3.43-.53,6.87-.84,10.31-.32,3.65-.69,7.3-1,10.95-.32,3.43-.65,6.86-1,10.3s-.54,6.64-.85,10c-.37,4.09-.77,8.18-1.17,12.28-.38,3.87-.78,7.74-1.15,11.61-.29,3-.54,6-.82,9-.4,4.2-.84,8.41-1.21,12.61-.31,3.43-.53,6.88-.83,10.31-.32,3.65-.69,7.3-1.06,10.95-.24,2.44-.54,4.86-.76,7.3-.31,3.43-.54,6.87-.85,10.3-.32,3.66-.67,7.31-1,11q-.47,4.82-1,9.63c-.4,4.2-.82,8.4-1.2,12.61-.3,3.43-.54,6.87-.84,10.31-.32,3.65-.68,7.3-1,10.95-.31,3.21-.64,6.42-.94,9.63q-.61,6.63-1.21,13.28c-.3,3.32-.54,6.65-.84,10-.32,3.54-.68,7.08-1,10.62-.29,2.88-.6,5.75-.86,8.63-.29,3.32-.49,6.65-.8,10-.32,3.54-.74,7.07-1.1,10.61q-.41,4-.75,8c-.29,3.32-.51,6.65-.81,10-.35,3.87-.78,7.74-1.14,11.62-.31,3.43-.56,6.87-.86,10.3q-.39,4.65-.83,9.3c-.39,4.32-.77,8.64-1.19,12.95-.34,3.54-.73,7.08-1.08,10.62-.31,3.09-.58,6.2-.87,9.3-.4,4.2-.84,8.4-1.22,12.61-.3,3.43-.52,6.87-.82,10.3-.32,3.66-.7,7.31-1.06,11-.24,2.43-.54,4.86-.76,7.3-.31,3.43-.55,6.87-.85,10.3-.32,3.65-.69,7.3-1,11s-.66,7.3-1,11c-.27,3.21-.48,6.43-.8,9.64-.35,3.54-.91,7.06-1.15,10.61a3.62,3.62,0,0,1-3.05,3.75c-3,.76-6,1.6-9,2.42q-16.45,4.44-32.9,8.88c-7.31,2-14.64,3.87-21.95,5.84q-15,4.05-30,8.13c-6.56,1.78-13.12,3.52-19.68,5.28q-16.29,4.39-32.58,8.8c-7.09,1.91-14.2,3.78-21.3,5.68-4,1.06-8,2-11.92,3.24a13.65,13.65,0,0,1-7.88.16c-6.34-1.75-12.69-3.41-19-5.13-7-1.89-14-3.81-20.95-5.7q-20.33-5.49-40.64-11c-7.2-1.94-14.42-3.83-21.62-5.77C113.1,612,103,609.28,92.9,606.55l-20-5.37-27.1-7.27c-.43-.12-.85-.26-1.28-.39a2.23,2.23,0,0,1-1.69-1.86c-.23-1.43-.51-2.86-.67-4.29-.25-2.21-.42-4.43-.62-6.64-.25-2.77-.48-5.54-.74-8.31-.4-4.2-.82-8.4-1.2-12.61-.3-3.43-.54-6.87-.85-10.3-.32-3.66-.67-7.31-1-11-.31-3.21-.63-6.42-.94-9.63-.41-4.2-.83-8.4-1.21-12.61-.3-3.43-.53-6.87-.84-10.31-.32-3.65-.7-7.3-1-10.95s-.65-7.31-1-11c-.26-3-.51-6-.78-9-.41-4.54-.81-9.07-1.26-13.61-.34-3.54-.77-7.07-1.12-10.61-.31-3.1-.54-6.2-.83-9.3-.38-4-.78-8-1.16-11.95-.25-2.66-.53-5.31-.75-8-.29-3.55-.49-7.1-.81-10.64s-.72-7.08-1.09-10.62c-.24-2.32-.49-4.64-.7-7-.3-3.43-.57-6.87-.85-10.3s-.55-6.65-.85-10c-.37-4.21-.77-8.41-1.17-12.62q-.51-5.31-1.05-10.62c-.24-2.43-.54-4.86-.76-7.29-.31-3.44-.56-6.88-.85-10.31s-.58-6.87-.9-10.3-.73-7.08-1.08-10.62c-.41-4.09-.82-8.18-1.19-12.28-.31-3.43-.54-6.87-.85-10.3-.32-3.65-.68-7.3-1-11l-1-10.29-1.08-11.29c-.29-3.1-.6-6.19-.89-9.29-.42-4.54-.86-9.08-1.24-13.62-.31-3.54-.53-7.09-.83-10.64-.19-2.33-.43-4.65-.67-7-.36-3.54-.75-7.07-1.1-10.61-.28-2.77-.56-5.53-.79-8.3-.29-3.55-.5-7.1-.79-10.65-.19-2.33-.44-4.65-.68-7-.36-3.43-.77-6.85-1.09-10.28s-.57-6.87-.87-10.3Q2.15,153,1.59,147.37c-.25-2.54-.56-5.08-.81-7.63-.27-2.76-.51-5.53-.74-8.3a11.66,11.66,0,0,1,0-1.67c.1-2.05.61-2.62,2.56-2.75,1.22-.08,2.45,0,3.67,0Zm1.79,150.48.18.64c-.77.39-1.52.82-2.31,1.16-5,2.12-10.05,4.22-15.08,6.35l-24.9,10.56c-5.85,2.46-11.72,4.88-17.57,7.34-6.77,2.86-13.52,5.76-20.29,8.61-7.39,3.11-14.79,6.18-22.18,9.3-9.54,4-19.06,8.09-28.61,12.08-4,1.66-4.57,2.05-4.13,7.07q.67,7.81,1.16,15.63c.31,5,.35,10,.83,15,.29,3,.54,6,.56,9,0,.67.11,1.33.16,2q.24,3,.47,6c0,.66,0,1.34.1,2,.17,1.41.71,2,2.12,2.11s2.67.08,4,.08H291.89c1.34,0,2.68,0,4,.08s2.05.7,2.06,2.14c0,2.55-.11,5.11-.23,7.66-.06,1.33-.27,2.66-.33,4-.27,5.22-.51,10.44-.76,15.66,0,.33-.08.66-.11,1-.16,2.22-.34,4.43-.49,6.65a21.31,21.31,0,0,1-.15,3,41.83,41.83,0,0,0-.53,8c0,1-.09,2-.15,3-.16,2.33-.35,4.66-.5,7a26.41,26.41,0,0,1-.15,3.34,44.43,44.43,0,0,0-.54,8c0,3.8-.18,4-3.82,5.18-5.74,1.8-11.5,3.53-17.25,5.28q-13.43,4.07-26.87,8.1c-4.58,1.38-9.17,2.75-13.75,4.15a6.13,6.13,0,0,1-3.6.19c-2.45-.72-4.94-1.35-7.41-2q-11.91-3.29-23.83-6.57c-8.16-2.23-16.33-4.43-24.5-6.66-1.61-.44-3.21-.92-4.81-1.38a3,3,0,0,1-2.38-2.84c-.23-3.44-.49-6.88-.74-10.32-.05-.77-.11-1.55-.18-2.32-.38-4.21-.79-8.41-1.12-12.62-.3-3.77-.52-7.55-.79-11.32a12,12,0,0,0-.2-1.32c-.71-4.26-.71-4.28-5.08-4.28q-24.06,0-48.11,0a21.6,21.6,0,0,0-2.67.1c-1.21.14-1.88.73-1.92,1.92-.07,1.89,0,3.79.08,5.67s.33,4,.5,6c.08.89.17,1.77.25,2.66.36,4,.74,8,1.06,11.95.31,3.77.53,7.55.82,11.32.21,2.77.46,5.53.71,8.3.37,3.87.81,7.74,1.12,11.62s.49,7.77.8,11.64c.38,4.66.9,9.3,1.24,13.95.14,1.92.91,3.16,2.79,3.64l1.29.35,34.31,10q14.1,4.14,28.21,8.26,18.12,5.28,36.25,10.54c3.85,1.12,7.72,2.17,11.57,3.27a10.06,10.06,0,0,0,5.6,0c1.93-.54,3.88-1,5.82-1.54q14.16-3.9,28.32-7.84l27.37-7.59,33.15-9.21c6.44-1.79,12.88-3.55,19.31-5.36,2.12-.59,2.46-1.07,2.61-3.29.26-3.77.5-7.54.75-11.32,0-.55.12-1.1.17-1.66.37-3.76.78-7.51,1.09-11.28s.52-7.77.78-11.65c0-.44.13-.88.17-1.32.37-4,.75-8,1.07-12,.31-3.77.53-7.54.82-11.31.16-2.1.37-4.2.55-6.31.28-3.32.52-6.65.82-10,.35-3.76.81-7.52,1.12-11.28s.51-7.77.77-11.65c0-.44.1-.88.14-1.33.37-3.76.79-7.51,1.1-11.28s.52-7.77.78-11.65c0-.44.11-.88.16-1.32.36-3.77.77-7.52,1.07-11.29s.52-7.76.79-11.65c0-.44.13-.88.17-1.32.37-4,.72-8,1.08-12,.15-1.66.33-3.31.43-5s.21-3.55.15-5.33c0-1.41-.68-2-2.11-2.09-1.21-.11-2.44-.09-3.67-.09h-119c-1.22,0-2.45,0-3.67-.09a5.69,5.69,0,0,1-1.43-.67,17.1,17.1,0,0,1,2.16-1.41c4.61-2,9.24-3.87,13.85-5.82q11.85-5,23.69-10l28.29-12,19.39-8.18,25.52-10.83c6.45-2.74,12.87-5.59,19.37-8.2a5.27,5.27,0,0,0,3.57-5.06c.08-1.11,0-2.23.12-3.34.1-1.66.26-3.32.4-5,.08-.89.18-1.78.24-2.66.26-4.44.51-8.88.78-13.32,0-.45.13-.88.17-1.33.14-1.43.3-2.87.39-4.31.28-4.22.53-8.44.8-12.65,0-.44.16-.88.19-1.32.13-2.11.34-4.22.33-6.33,0-2.54-.56-3-3.23-3.1-1,0-2,0-3,0H292.49l-187.46,0c-1.78,0-3.56.09-5.34.18-2.11.12-4.21.36-6.32.42-2.67.09-5.35,0-8,.08-1.92.07-2.58.89-2.36,2.8s.52,3.75.8,5.62c1,6.71,2,13.42,3,20.14,1.21,8.26,2.35,16.53,3.59,24.78.59,3.94.87,4.14,5,4.14q26.05,0,52.12,0c1.23,0,2.45-.13,3.67-.21,1.88-.13,3.76-.39,5.65-.39q35.58-.06,71.17-.05C229.05,277.36,230.15,277.43,231.25,277.46Z"/><path d="M322.36,57.46a8.25,8.25,0,0,0-1-1.76c-5-4.79-9.59-9.92-14.84-14.43-3.71-3.18-7-6.85-10.46-10.31a4.26,4.26,0,0,1-1.23-3c0-.56,0-1.11,0-1.67,0-7.35,0-14.7,0-22,0-3.92.28-4.21,4.15-4.21h61.8c3.86,0,4.16.32,4.17,4.2,0,7,0,14,0,21.05,0,.33,0,.67,0,1-.13,2.56-.59,3.08-3.25,3.1-6.57.06-13.14,0-19.71,0a23.09,23.09,0,0,0-3,.12,6.7,6.7,0,0,0-1.61.75,11,11,0,0,0,1.2,1.77c2.79,2.71,5.3,5.72,8.49,8a15.05,15.05,0,0,1,1.71,1.59c4.57,4.56,9.09,9.17,13.74,13.66a7.44,7.44,0,0,1,2.48,5.89c-.1,6.46,0,12.92,0,19.38,0,4-.28,4.28-4.44,4.28q-30.74,0-61.47,0c-3.91,0-4.2-.3-4.21-4.16q0-9.35,0-18.7c0-3.46.38-3.82,3.86-3.83,6.56,0,13.13,0,19.7,0A6.68,6.68,0,0,0,322.36,57.46Z"/><path d="M237.08,30.37a12.93,12.93,0,0,0,1.27,1.79q11.21,11.25,22.46,22.44c.71.7,1.53,1.29,2.31,1.92a3.68,3.68,0,0,1,1.45,2.88c0,.78.05,1.56.05,2.34q0,9.18,0,18.38c0,4.6-.14,4.74-4.64,4.74H199.16a22.59,22.59,0,0,1-2.33-.06c-1.59-.15-2.13-.71-2.29-2.31-.06-.67-.06-1.34-.06-2,0-6,0-12,0-18,0-4,.24-4.27,4.42-4.28,6.46,0,12.93,0,19.39,0,1.07,0,2.22.29,3.18-.39.35-.71-.13-1.1-.49-1.5-.6-.65-1.24-1.27-1.87-1.9-7.33-7.32-14.61-14.69-22-21.93a8.24,8.24,0,0,1-2.66-6.5c.12-7.24,0-14.48.05-21.72,0-3.88.31-4.19,4.18-4.19h62.49c3,.1,3.43.48,3.45,3.57,0,7.35,0,14.7,0,22.06,0,.33,0,.67,0,1-.15,2-.67,2.57-2.62,2.71-.88.06-1.78,0-2.67,0-6.35,0-12.7,0-19.05,0C239.21,29.41,238,29.08,237.08,30.37Z"/><path d="M92.91,42.33q0-18.55,0-37.09c0-1.11,0-2.23.11-3.34A1.77,1.77,0,0,1,94.74.15,19.59,19.59,0,0,1,97.4,0h61.14a19.82,19.82,0,0,1,2.67.13,1.83,1.83,0,0,1,1.72,1.75,18.09,18.09,0,0,1,.12,2.33V25.27c0,.34,0,.67,0,1-.14,2.55-.6,3.06-3.27,3.1-4.34.06-8.69,0-13,0H127.36c-4.17,0-4.41.26-4.44,4.3,0,4.57,0,9.13,0,13.7,0,2.12,0,4.23,0,6.35a22.58,22.58,0,0,0,.09,2.33,2,2,0,0,0,1.9,2,25,25,0,0,0,3,.11H158c1.11,0,2.23,0,3.33.15a1.68,1.68,0,0,1,1.56,1.51,13.86,13.86,0,0,1,.17,2.32q0,9.36,0,18.71c0,3.66-.35,4-4,4q-31.08,0-62.15,0c-3.6,0-3.92-.36-3.93-4.11C92.9,67.94,92.92,55.13,92.91,42.33Z"/></svg>