<svg id="Calque_1" data-name="Calque 1" xmlns="http://www.w3.org/2000/svg" viewBox="0 0 831.3 1211.89"><path d="M225.35,1211.89A225.35,225.35,0,0,1,66,827.19a228.31,228.31,0,0,1,38.48-31A228.25,228.25,0,0,1,66,765.3a225.37,225.37,0,0,1,0-318.7,227.82,227.82,0,0,1,38.48-31A227.82,227.82,0,0,1,66,384.7,225.35,225.35,0,0,1,225.35,0H606A225.34,225.34,0,0,1,765.28,384.7a226.84,226.84,0,0,1-38.48,30.95,227.82,227.82,0,0,1,38.48,31A225.35,225.35,0,0,1,450.7,769.31V986.54a225.37,225.37,0,0,1-225.35,225.35Zm0-380.59A155.24,155.24,0,1,0,380.59,986.54V831.3ZM606,450.7a155.24,155.24,0,1,0,109.76,45.46A154.25,154.25,0,0,0,606,450.7ZM225.35,761.19H380.59V450.7H225.35a155.25,155.25,0,1,0,0,310.49ZM450.7,380.59H606a155.24,155.24,0,0,0,0-310.48H450.7Zm-225.35,0H380.59V70.11H225.35a155.24,155.24,0,1,0,0,310.48Z"/></svg>