<svg id="Calque_1" data-name="Calque 1" xmlns="http://www.w3.org/2000/svg" viewBox="0 0 458.37 647.97"><path d="M229.2,127.69H452.1c1.34,0,2.68,0,4,.07,1.59.12,2.1.7,2.22,2.35a11.13,11.13,0,0,1,0,2c-.34,3.43-.72,6.86-1.07,10.29-.27,2.65-.54,5.31-.75,8-.3,3.65-.53,7.32-.82,11-.26,3.22-.55,6.43-.84,9.64q-.57,6.32-1.16,12.62c-.34,3.54-.7,7.08-1.05,10.62-.27,2.77-.58,5.53-.81,8.3-.3,3.66-.51,7.33-.82,11s-.72,7.31-1.08,11c-.27,2.76-.56,5.53-.79,8.3-.3,3.66-.5,7.32-.81,11s-.69,7.08-1,10.62c-.3,3.1-.61,6.2-.89,9.3-.44,4.87-.88,9.74-1.28,14.62-.3,3.54-.5,7.1-.81,10.64s-.74,7.08-1.09,10.62c-.27,2.65-.54,5.31-.75,8-.3,3.66-.51,7.32-.82,11s-.68,7.08-1,10.62c-.3,3.1-.63,6.2-.91,9.3q-.66,7.3-1.28,14.62c-.29,3.54-.5,7.1-.81,10.64s-.73,7.08-1.08,10.62c-.28,2.77-.57,5.53-.79,8.3-.29,3.66-.49,7.33-.8,11s-.71,7.08-1.06,10.62c-.3,3.1-.6,6.2-.88,9.3-.42,4.77-.85,9.53-1.25,14.29-.3,3.55-.51,7.1-.82,10.64s-.71,7.08-1.07,10.62c-.07.67-.14,1.33-.2,2-.41,4.42-.83,8.85-1.22,13.28-.29,3.21-.52,6.43-.8,9.64-.38,4.32-.82,8.64-1.19,13-.31,3.65-.55,7.31-.85,11q-.41,5-.85,10-.56,6.32-1.16,12.62c-.36,3.88-.75,7.75-1.11,11.62-.25,2.55-.5,5.09-.71,7.64-.3,3.44-.54,6.88-.84,10.31q-.49,5.49-1,11c-.26,2.77-.58,5.53-.81,8.3-.31,3.54-.51,7.1-.83,10.64-.44,4.87-.93,9.74-1.41,14.61a2.35,2.35,0,0,1-1.79,2.17l-1.93.55q-14,3.9-28,7.79l-28.35,7.8c-9,2.5-18,5-27,7.54-9.44,2.62-18.9,5.19-28.34,7.81q-15.3,4.24-30.58,8.52-11.1,3.09-22.21,6.16c-5.58,1.55-11.19,3-16.74,4.63a9.66,9.66,0,0,1-5.56.06c-5.36-1.51-10.75-2.93-16.11-4.42q-13.68-3.79-27.35-7.63-19.63-5.47-39.27-10.95c-11.8-3.27-23.62-6.48-35.43-9.74C97.75,612,87.35,609,77,606.13q-14-3.9-28-7.75c-1.72-.48-3.42-1-5.15-1.46a2.81,2.81,0,0,1-2.39-2.78c-.21-3.11-.45-6.21-.74-9.31-.33-3.55-.73-7.08-1.08-10.62-.26-2.66-.53-5.31-.75-8-.3-3.66-.53-7.32-.82-11-.26-3.22-.55-6.43-.84-9.64Q36.6,539.3,36,533c-.33-3.54-.69-7.08-1-10.62-.06-.56-.16-1.1-.21-1.66-.44-5-.89-10-1.3-15-.3-3.66-.5-7.32-.81-11s-.7-7.08-1.05-10.62c-.27-2.77-.57-5.53-.8-8.3-.3-3.55-.51-7.1-.82-10.65s-.71-7.08-1.08-10.61c-.05-.56-.12-1.11-.17-1.67-.43-4.87-.88-9.74-1.28-14.61-.3-3.66-.5-7.33-.81-11s-.7-7.08-1-10.63c-.26-2.65-.53-5.31-.77-8-.29-3.44-.54-6.88-.84-10.31-.35-4-.73-8-1.1-12-.28-3.1-.58-6.2-.87-9.3-.18-2-.38-4-.54-6-.3-3.65-.55-7.32-.84-11-.27-3.33-.57-6.65-.87-10q-.56-6.15-1.13-12.29c-.34-3.54-.68-7.09-1-10.63-.06-.66-.18-1.32-.24-2-.43-4.88-.87-9.75-1.28-14.62-.29-3.55-.5-7.1-.82-10.65s-.72-7.08-1.08-10.62c-.26-2.65-.53-5.31-.75-8-.3-3.65-.53-7.32-.82-11q-.31-4.17-.7-8.31c-.36-3.77-.77-7.53-1.14-11.29-.24-2.43-.45-4.87-.66-7.31-.29-3.43-.54-6.87-.84-10.3-.32-3.66-.69-7.31-1-11-.32-3.43-.66-6.87-.94-10.3-.3-3.66-.53-7.32-.82-11-.17-2.1-.37-4.21-.58-6.31-.37-3.76-.77-7.52-1.13-11.28-.24-2.44-.46-4.87-.67-7.31-.29-3.43-.54-6.87-.84-10.31-.32-3.65-.68-7.3-1-11-.06-.66-.18-1.32-.24-2-.44-4.88-.86-9.75-1.29-14.62-.22-2.55-.46-5.1-.68-7.64A5,5,0,0,1,0,130c0-1.42.6-2.07,2-2.24a15.44,15.44,0,0,1,1.67-.08H229.2Zm-.53,93.52H90c-1.22,0-2.45,0-3.67.05-2.19.16-3,1-2.82,3.24.21,3,.56,6,.84,9l1.08,11.28,1,10.3c.35,3.65.71,7.3,1,11,.3,3.43.55,6.87.85,10.3.23,2.66.51,5.31.77,8q.54,5.64,1.07,11.29.48,5.15,1,10.29c.34,3.65.7,7.3,1,11,.3,3.43.55,6.87.85,10.3q.33,3.83.71,7.64c.36,3.54.75,7.08,1.1,10.62.25,2.54.47,5.09.69,7.64.29,3.43.56,6.87.85,10.3q.32,3.66.67,7.31c.36,3.65.79,7.29,1.13,10.95.31,3.32.51,6.65.82,10,.13,1.44.36,2.87.6,4.3.29,1.69.88,2.25,2.67,2.4,1.11.1,2.23.07,3.34.07H292.64c1.34,0,2.68,0,4,.11a1.83,1.83,0,0,1,1.89,1.95c0,2.1-.07,4.22-.18,6.33-.06,1.1-.29,2.2-.37,3.31-.28,3.88-.5,7.77-.81,11.65-.39,4.87-.84,9.74-1.27,14.61-.05.56-.13,1.11-.18,1.66-.37,4-.75,8-1.09,12-.31,3.65-.56,7.31-.85,11-.15,2-.34,4-.51,6-.06.66-.08,1.34-.18,2a2.91,2.91,0,0,1-2,2.44c-.63.22-1.28.39-1.92.58L278.24,475q-23,6.52-46,13.07a11,11,0,0,1-5.93.11c-1.72-.45-3.44-1-5.15-1.43l-49.15-14-4.5-1.29a3,3,0,0,1-2.52-3.08c0-1-.11-2-.22-3-.58-5.19-1.18-10.39-1.76-15.58-.24-2.1-.48-4.2-.68-6.3-.29-3.21-.53-6.43-.83-9.64-.16-1.77-.39-3.54-.6-5.3-.25-2.06-.86-2.63-3-2.79-.67-.05-1.34,0-2,0q-24.9,0-49.79,0a26.37,26.37,0,0,0-2.67.09,1.66,1.66,0,0,0-1.7,2c.38,4.32.79,8.64,1.2,13,.39,4,.81,8,1.2,12,.29,3,.55,6,.84,9,.38,3.88.78,7.75,1.16,11.62.32,3.21.62,6.42.94,9.62s.69,6.42,1,9.62q.59,5.64,1.14,11.29c.31,3.21.67,6.41.86,9.63.24,3.93.24,4,4,5l19.36,5.18L176,535.12l20,5.37c10.21,2.76,20.43,5.5,30.63,8.3a10.27,10.27,0,0,0,5.58,0c6.33-1.76,12.69-3.43,19-5.15l29.65-8.06,17.41-4.72,34.16-9.34c4.19-1.14,8.36-2.34,12.55-3.46a2.87,2.87,0,0,0,2.39-2.81c.2-2.55.49-5.09.67-7.64.28-4,.48-8,.77-12,.23-3.22.51-6.43.81-9.64.35-3.76.8-7.52,1.09-11.28.33-4.1.53-8.21.79-12.32,0-.44.11-.88.15-1.33.37-3.76.78-7.52,1.08-11.28s.53-7.77.79-11.65c0-.44.12-.88.17-1.33.36-3.87.76-7.74,1.06-11.62s.53-8,.8-12c0-.44.14-.88.18-1.32.35-4,.72-8,1-12,.3-3.77.55-7.54.84-11.31.21-2.77.46-5.54.71-8.31.36-4.09.75-8.19,1.11-12.28.42-4.77.81-9.53,1.21-14.29.27-3.21.55-6.43.78-9.64a21.6,21.6,0,0,0,0-3c-.14-1.82-.82-2.59-2.68-2.8a41.86,41.86,0,0,0-4.34-.12H158c-4,0-4.1,0-4.63-4-.69-5.07-1.14-10.17-1.69-15.26-.52-4.86-1-9.73-1.53-14.6-.72-6.63-1.48-13.26-2.2-19.89-.17-1.61.35-2.21,2-2.33,1.33-.08,2.67-.05,4-.05H361.48c1.23,0,2.45,0,3.68,0,3-.11,3.51-.64,3.69-3.51.08-1.33.13-2.66.25-4,.35-4.21.76-8.42,1.08-12.63.31-4,.53-8,.81-12,.17-2.44.38-4.87.58-7.31.27-3.32.56-6.65.82-10,.25-3.11.49-6.21.68-9.32a1.67,1.67,0,0,0-1.74-2c-1.32-.13-2.67-.12-4-.12Z"/><path d="M283,30.41a14.06,14.06,0,0,0,1.68-1.81c3.26-5.31,6.48-10.65,9.72-16,2-3.33,4.11-6.62,6.08-10A4.81,4.81,0,0,1,305.07,0c7.57.08,15.14,0,22.71,0a11.61,11.61,0,0,1,1.67.09,1.92,1.92,0,0,1,1.87,2,23.74,23.74,0,0,1,.09,2.67V82a27.26,27.26,0,0,1-.12,3,1.82,1.82,0,0,1-1.71,1.76,16.47,16.47,0,0,1-2.33.13h-20c-3.45-.07-3.81-.38-3.81-3.88,0-11.35,0-22.71,0-34.07,0-1.3.23-2.66-.34-3.83-.8-.42-1.17.06-1.51.49a19.12,19.12,0,0,0-1.14,1.64q-8,12.33-15.95,24.68c-.41.63-.91,1.2-1.5,2a8.9,8.9,0,0,1-1.57-1.34c-1.16-1.63-2.25-3.32-3.34-5q-6.81-10.52-13.62-21A16.8,16.8,0,0,0,263,44.86c-.95.1-1.06.67-1.08,1.22-.05,1.11-.07,2.22-.07,3.34q0,16.36,0,32.73c0,4.59-.11,4.69-4.68,4.7-5.9,0-11.8,0-17.71,0-5.65,0-5.6,0-5.6-5.45q0-36.24,0-72.49c0-1.67,0-3.34,0-5a13.24,13.24,0,0,1,.16-2A2,2,0,0,1,235.85.2a15.12,15.12,0,0,1,2.33-.15q11,0,22.05,0h.33c2.43-.3,4,.87,5.09,2.93.79,1.47,1.69,2.88,2.56,4.31Q274.74,18,281.29,28.65A13.34,13.34,0,0,0,283,30.41Z"/><path d="M126.87,43.76V81.53c0,1.11,0,2.23-.1,3.33a1.91,1.91,0,0,1-2,1.9,26.37,26.37,0,0,1-2.67.09q-9.19,0-18.38,0c-4.84,0-4.93-.09-4.93-4.79,0-6.46,0-12.92,0-19.38a25,25,0,0,0-.13-3,2.16,2.16,0,0,0-2.2-2.11,16.46,16.46,0,0,0-2.33-.11q-9.36,0-18.71,0c-4.34,0-4.69.37-4.7,4.84,0,6.57,0,13.14,0,19.72a27.27,27.27,0,0,1-.14,3,1.81,1.81,0,0,1-1.75,1.71,20.09,20.09,0,0,1-2.33.12H45.8c-2.56-.13-3-.58-3.1-3.26,0-.56,0-1.12,0-1.67V5.05c0-1.11.05-2.23.17-3.33A1.65,1.65,0,0,1,44.4.2,16.48,16.48,0,0,1,46.73.05q10,0,20.05,0c3.65,0,3.94.32,4,4.07,0,6.68,0,13.37,0,20.05a23.09,23.09,0,0,0,.13,3,2.15,2.15,0,0,0,2.19,2.11,16.46,16.46,0,0,0,2.33.11q9.36,0,18.71,0c4.34,0,4.69-.38,4.71-4.84,0-6.46,0-12.92,0-19.38a30,30,0,0,1,.08-3C99.05.76,99.6.26,101.07.11c.78-.07,1.56-.06,2.34-.06q9.36,0,18.71,0c4.64,0,4.74.1,4.75,4.62Q126.89,24.21,126.87,43.76Z"/><path d="M180.28,0h35.39c4.65,0,4.75.1,4.76,4.59,0,6.45,0,12.91,0,19.36,0,3.71-.32,4-4,4.05-5.56,0-11.13,0-16.69,0a20.46,20.46,0,0,0-3.32.27,2.18,2.18,0,0,0-1.89,2.05,30.8,30.8,0,0,0-.14,3.33q0,23.87,0,47.74c0,1.22,0,2.45-.16,3.66a1.69,1.69,0,0,1-1.51,1.56,15,15,0,0,1-2.32.16c-6.68,0-13.36,0-20,0-3.71,0-4-.31-4-4q0-24.21,0-48.41c0-1.11,0-2.23,0-3.34-.14-2.14-.75-2.78-2.81-3-.88-.08-1.78-.06-2.67-.06h-15c-.56,0-1.11,0-1.67,0-3.44-.08-3.79-.39-3.81-3.89,0-6.79,0-13.57,0-20.36,0-.23,0-.45,0-.67.12-2.6.52-3,3.23-3.07,5-.06,10,0,15,0Z"/><path d="M347.45,43.09q0-18.87,0-37.75c0-1.11,0-2.23.1-3.33a1.9,1.9,0,0,1,2-1.88,20.26,20.26,0,0,1,2.34-.08q9.51,0,19,0c4.49,0,4.59.11,4.59,4.77q0,20,0,40.09c0,3.11,0,6.23,0,9.35a20.33,20.33,0,0,0,.08,2.34c.15,1.43.69,2,2.08,2.14,1,.1,2,.09,3,.09h31.07a30.79,30.79,0,0,1,3.33.12,1.77,1.77,0,0,1,1.71,1.74A18.25,18.25,0,0,1,416.9,63q0,9.85,0,19.71c0,.44,0,.89,0,1.33-.14,2.17-.62,2.62-2.9,2.75-.67,0-1.33,0-2,0H352.51c-1.11,0-2.23,0-3.33-.16a1.65,1.65,0,0,1-1.55-1.52,28.29,28.29,0,0,1-.17-3.32Q347.45,62.47,347.45,43.09Z"/></svg>