<svg id="Calque_1" data-name="Calque 1" xmlns="http://www.w3.org/2000/svg" viewBox="0 0 843.62 599.03"><path d="M840,392a148.09,148.09,0,0,0-43.47-81.88,239.66,239.66,0,0,0-62.74-43.92c-30.93-15-62.54-28.7-93.82-43-14.67-6.73-29.29-13.62-41.66-24.3-27-23.28-24.61-66.59,4.72-84.58,16.24-10,34.07-10.47,52.18-7.24,23.49,4.2,39.38,19,51.84,38.23,2.41,3.73,4.67,7.55,7.21,11.65l94-60.34c-2.41-4-4.39-7.45-6.51-10.81-18.63-29.44-42.35-53.37-74.35-68.21C706,7.64,683.38,2.77,660,1c-31.88-2.49-63.25-.43-93.54,10.4-48.15,17.21-82.08,49-98.29,98.17-8.71,26.45-9.26,53.63-5.31,81,4.74,32.86,18.09,61.65,41.13,85.84,20.76,21.78,45.59,37.8,72.46,50.61,25.2,12,51.2,22.35,76.44,34.29,15.58,7.37,31.43,14.91,45.35,24.89,37.42,26.81,31.27,78.29-11,96.5-28.8,12.41-58.42,11.62-87.92,2.77-26.17-7.86-46.09-24.68-62.35-46.13-5-6.6-9.58-13.52-14.48-20.47l-97.86,56.85c28.72,54.94,72.19,91.19,130.16,110,36.88,12,74.87,15.21,113.41,12.33,30.63-2.28,60.15-9.06,87.76-22.89,37.46-18.77,64.69-47,78.47-87C845.16,456.65,845.78,424.46,840,392Z"/><path d="M360,7.18H239.56v7.1q0,198.52-.11,397a209.4,209.4,0,0,1-2.72,33.26c-2.63,16.12-9,31-24.56,38.45-23.49,11.24-47.61,11.49-71-.92-13.34-7.08-22.08-19-30.07-31.41-4.48-6.95-8.62-14.11-13.16-21.57L0,488.41c.38.95.56,1.57.86,2.13,3.24,6,6.24,12.14,9.78,18,22.92,37.58,54.61,64.6,96.65,78.57,45.48,15.12,91.6,15.55,137.67,3.29,38.69-10.3,69.62-31.91,90.19-66.91C352.64,493.7,359.84,461,359.94,427c.42-138.5.24-277,.27-415.51C360.21,10.13,360.06,8.82,360,7.18Z"/></svg>