<svg xmlns="http://www.w3.org/2000/svg" viewBox="0 0 1241.95 629.4"><g id="Calque_2" data-name="Calque 2"><path d="M931.47,218.15H880.63L852.92,360.73h45.14q44.88,0,66.85-16.91t29.65-56.46q7.38-38-6.71-53.59T931.47,218.15Z"/><path d="M621,0C278,0,0,140.9,0,314.7S278,629.4,621,629.4s621-140.9,621-314.7S963.93,0,621,0ZM445.45,376q-22.23,20.81-49.4,29.64t-69.23,8.84H263.26l-17.61,90.57H171.44l66.22-340.67h142.7q64.39,0,93.93,33.81t17.76,94.37A148,148,0,0,1,445.45,376Zm216.61,38.48,29.29-150.73q5-25.72-3.68-35.08t-36.94-9.36H591.89L554,414.49H480.34L546.55,73.82h73.62l-17.6,90.57h65.59q61.9,0,85.4,21.6t14.1,70L736.85,414.49Zm409.21-121.92a148,148,0,0,1-46.6,83.44q-22.23,20.81-49.4,29.64T906,414.49H842.48l-17.61,90.57H750.66l66.21-340.67H959.58q64.39,0,93.93,33.81T1071.27,292.57Z"/><path d="M352.26,218.15H301.41L273.7,360.73h45.14q44.88,0,66.85-16.91t29.65-56.46q7.38-38-6.71-53.59T352.26,218.15Z"/></g></svg>