<svg id="Calque_1" data-name="Calque 1" xmlns="http://www.w3.org/2000/svg" viewBox="0 0 492.36 368.23"><g id="Outlined_Mnemonics_Logos" data-name="Outlined Mnemonics Logos"><g id="Ps"><path d="M0,356.64V5.8C0,3.41,1,2.05,3.41,2.05c5.8,0,11.25,0,19.09-.35,8.19-.34,16.71-.34,25.92-.68S67.51.68,78.08.34,98.88,0,109.1,0c28,0,51.15,3.41,70.24,10.57a121.77,121.77,0,0,1,45.69,28A108.64,108.64,0,0,1,249.92,77.4a130.59,130.59,0,0,1,7.84,44.32q0,44-20.46,72.62a116.77,116.77,0,0,1-54.89,41.6c-23.19,8.52-48.76,11.59-76.71,11.59-8.19,0-13.64,0-17-.34s-8.19-.34-14.66-.34V356.29a4.25,4.25,0,0,1-3.75,4.78H4.09C1.36,361.07,0,359.7,0,356.64ZM74.33,67.85V182.41c4.77.34,9.2.68,13.29.68H105.7A127.05,127.05,0,0,0,144.9,177a58.48,58.48,0,0,0,28-18.07c7.16-8.52,10.57-20.11,10.57-35.11a56.11,56.11,0,0,0-7.84-30.35A49.47,49.47,0,0,0,151.72,74c-12.61-5.12-26.25-7.16-40.23-6.82-8.86,0-16.71,0-23.18.34a78.26,78.26,0,0,0-14,.34Z"/><path d="M470.51,161.61A120.76,120.76,0,0,0,437.78,150a179.52,179.52,0,0,0-38.18-4.43A68.85,68.85,0,0,0,379.14,148a17.55,17.55,0,0,0-10.57,6.82,18,18,0,0,0-2.73,9.21,15.17,15.17,0,0,0,3.41,8.86,38.58,38.58,0,0,0,11.59,9.21c7.85,4.09,16,7.84,24.21,11.25a247.18,247.18,0,0,1,52.51,24.89,79.37,79.37,0,0,1,26.93,28.3,73.43,73.43,0,0,1,7.84,35.12A79.26,79.26,0,0,1,479,327a85.5,85.5,0,0,1-38.19,30.35c-16.71,7.16-37.16,10.91-61.71,10.91a235.45,235.45,0,0,1-46.37-4.43A137.93,137.93,0,0,1,298,352.89c-2.38-1.37-4.09-3.76-3.75-6.48V287.08a3.7,3.7,0,0,1,1.37-3.07c1-.68,2-.34,3.06.34A145.81,145.81,0,0,0,341,301.06a158.76,158.76,0,0,0,40.23,5.12c13,0,22.17-1.71,28.3-4.78a15.82,15.82,0,0,0,9.21-14.32c0-4.77-2.73-9.2-8.18-13.64s-16.71-9.54-33.42-16a208.57,208.57,0,0,1-48.41-24.55,88.19,88.19,0,0,1-25.91-29,73.11,73.11,0,0,1-7.85-34.78,80.08,80.08,0,0,1,11.6-41.25,84,84,0,0,1,35.8-31.37c16-8.18,36.14-11.93,60.34-11.93a294.77,294.77,0,0,1,42.28,3.06,120.18,120.18,0,0,1,29.32,7.85,5.94,5.94,0,0,1,3.41,3.07,17.08,17.08,0,0,1,.69,4.09V158.2a4.2,4.2,0,0,1-1.71,3.41C473.58,162.29,471.88,162.29,470.51,161.61Z"/></g></g></svg>