<svg id="Calque_1" data-name="Calque 1" xmlns="http://www.w3.org/2000/svg" viewBox="0 0 1037.93 925.18"><path d="M519,369.85a92.52,92.52,0,1,0,92.5,92.52A92.52,92.52,0,0,0,519,369.85Z"/><path d="M1037.93,462.36c0-72.68-85.43-135.61-218.11-173.65,33.39-133.94,21.6-239.41-41.37-275.78S618.22,19.06,519,115c-99.3-95.87-196.52-138.35-259.48-102S184.74,154.75,218.16,288.7C85.45,326.74,0,389.67,0,462.36S85.32,597.91,217.85,636c-5.17,20.45-9.66,40.53-12.75,59.78-17.45,109,1.85,185.75,54.38,216,15.51,9,33,13.4,52.31,13.4,46,0,101.58-25.26,162-74.31,15-12.24,30.15-26.11,45.2-40.73,15,14.62,30.14,28.49,45.19,40.73,60.38,49,116,74.31,162,74.31,19.25,0,36.79-4.41,52.31-13.4,52.53-30.28,71.83-107,54.38-216-3.09-19.26-7.58-39.36-12.75-59.82C952.61,597.91,1037.93,535,1037.93,462.36ZM755.88,52c40.84,23.6,49.47,109.14,20.34,225.5-42.47-9.73-88.79-17-138-21.57a1057.88,1057.88,0,0,0-87.77-108.84C619,80.73,682.57,44.8,726.27,44.8,737.55,44.8,747.51,47.17,755.88,52ZM663.6,545.87c-16,27.74-32.81,54.43-50.13,79.88-30.26,2.27-61.74,3.59-94.51,3.59s-64.2-1.32-94.45-3.57c-17.33-25.47-34.12-52.16-50.14-79.9-16.37-28.36-31-56.27-44.13-83.59,13.38-27.74,28.11-55.65,44.13-83.39,16.34-28.32,33.16-54.89,50.21-79.9,30.22-2.27,61.66-3.57,94.38-3.57s64.19,1.31,94.42,3.57q25.59,37.53,50.22,79.9c16,27.74,30.76,55.64,44.14,83.38C694.58,489.59,680,517.51,663.6,545.87Zm68-30.52c12.68,30.09,23.53,59.66,32.55,88.45-28.9,6.51-59.88,12-93,16.21,10.76-16.82,21.35-33.93,31.53-51.58S722.46,533,731.59,515.35ZM519,745.48c-20.45-22.22-40.67-46.43-60.41-72.49,19.81.9,39.89,1.47,60.38,1.47s40.61-.57,60.44-1.47C559.66,699.05,539.43,723.26,519,745.48ZM366.86,620c-33.15-4.18-64.13-9.71-93-16.23,9-28.78,19.86-58.36,32.55-88.45,9.14,17.63,18.69,35.32,28.95,53.08S356.09,603.2,366.86,620ZM306.37,409.48c-12.93-30.75-23.63-60.32-32.43-88.57,28.85-6.5,59.78-12,92.86-16.17-10.68,16.71-21.23,33.82-31.47,51.58S315.58,391.73,306.37,409.48ZM519,179.16c20,21.7,40.24,46.1,60.35,72.61-19.8-.91-39.87-1.48-60.37-1.48s-40.54.57-60.33,1.48C478.74,225.25,499,200.85,519,179.16ZM702.65,356.32c-10.25-17.76-20.79-34.87-31.48-51.58,33.07,4.16,64,9.68,92.84,16.18-8.79,28.25-19.47,57.81-32.42,88.56C722.39,391.73,712.85,374,702.65,356.32ZM282.05,52c8.37-4.81,18.33-7.18,29.61-7.18C355.38,44.8,419,80.73,487.5,147.06A1057.26,1057.26,0,0,0,399.76,255.9c-49.23,4.57-95.56,11.85-138,21.57C232.59,161.12,241.22,75.58,282.05,52ZM45.13,462.36c0-47.16,69.76-97.38,185.11-130.3,12.8,41.64,29.67,85.4,50.33,130.31a1075.05,1075.05,0,0,0-50.5,130.27C114.82,559.69,45.13,509.49,45.13,462.36ZM445.32,815.84c-69.1,56.1-128.64,76.86-163.27,56.89s-46.45-81.92-32.35-169.8c2.86-17.91,7-36.64,11.84-55.7,42.53,9.75,88.94,17,138.24,21.62a1074.38,1074.38,0,0,0,87.72,109C473.44,791.49,459.36,804.42,445.32,815.84Zm343-113c14.06,87.92,2.3,149.83-32.39,169.84s-94.17-.75-163.23-56.89c-14-11.42-28.12-24.35-42.18-38a1074.43,1074.43,0,0,0,87.73-109,1060.21,1060.21,0,0,0,138.22-21.62C781.22,666.28,785.41,685,788.27,702.89Zm19.59-110.25A1070.57,1070.57,0,0,0,757.4,462.38c20.66-44.91,37.53-88.67,50.34-130.31C923.06,365,992.8,415.2,992.8,462.36S923.12,559.69,807.86,592.64Z"/></svg>