<svg id="Calque_1" data-name="Calque 1" xmlns="http://www.w3.org/2000/svg" viewBox="0 0 739.38 568.75"><defs><style>.cls-1{fill:#00edb4;}</style></defs><path class="cls-1" d="M625.93,47.18A607.45,607.45,0,0,0,475.42,0a2.27,2.27,0,0,0-1.38.2,2.33,2.33,0,0,0-1,1A425.28,425.28,0,0,0,454.26,40a558.28,558.28,0,0,0-169,0,388.77,388.77,0,0,0-19-38.84A2.35,2.35,0,0,0,263.78,0,603.31,603.31,0,0,0,113.27,47.18a1.9,1.9,0,0,0-1,.84C16.46,192.54-9.84,333.51,3.06,472.72a2.59,2.59,0,0,0,1,1.72,611.38,611.38,0,0,0,184.61,94.2,2.29,2.29,0,0,0,1.44,0,2.37,2.37,0,0,0,1.15-.88,445,445,0,0,0,37.8-62,2.45,2.45,0,0,0,.22-1.46,2.38,2.38,0,0,0-1.52-1.81,408.08,408.08,0,0,1-57.67-27.74,2.34,2.34,0,0,1-.92-3.08,2.41,2.41,0,0,1,.69-.89c3.88-2.93,7.77-6,11.46-9.09a2.21,2.21,0,0,1,1.13-.49,2.35,2.35,0,0,1,1.23.16c121,55.78,252,55.78,371.58,0a2.39,2.39,0,0,1,1.27-.17,2.35,2.35,0,0,1,1.18.5c3.69,3.08,7.58,6.16,11.46,9.09a2.46,2.46,0,0,1,.73.9,2.34,2.34,0,0,1,.23,1.14,2.43,2.43,0,0,1-.33,1.11,2.47,2.47,0,0,1-.82.82,380.94,380.94,0,0,1-57.71,27.7,2.24,2.24,0,0,0-.85.54,2.28,2.28,0,0,0-.54.86,2.45,2.45,0,0,0-.13,1,2.55,2.55,0,0,0,.27.94,497.15,497.15,0,0,0,37.75,62,2.33,2.33,0,0,0,1.15.88,2.29,2.29,0,0,0,1.44,0,609.43,609.43,0,0,0,184.89-94.2,2.23,2.23,0,0,0,.68-.75,2.54,2.54,0,0,0,.29-1C751.62,311.78,710.35,172,626.85,48.07a1.55,1.55,0,0,0-.92-.89ZM247.1,387.94c-36.47,0-66.46-33.77-66.46-75.18s29.44-75.22,66.46-75.22c37.29,0,67,34,66.45,75.22C313.55,354.17,284.11,387.94,247.1,387.94Zm245.65,0c-36.41,0-66.45-33.77-66.45-75.18s29.44-75.22,66.45-75.22c37.29,0,67,34,66.45,75.22C559.2,354.17,530,387.94,492.75,387.94Z"/></svg>