<svg id="Calque_1" data-name="Calque 1" xmlns="http://www.w3.org/2000/svg" viewBox="0 0 739.38 710.94"><defs><style>.cls-1{fill:#00edb4;}</style></defs><path class="cls-1" d="M369.69,0C165.45,0,0,163.1,0,364.46,0,525.73,105.82,662,252.78,710.24c18.49,3.19,25.42-7.74,25.42-17.31,0-8.66-.48-37.36-.48-67.88-92.88,16.86-116.91-22.33-124.3-42.83-4.15-10.47-22.18-42.82-37.91-51.47-12.91-6.84-31.42-23.7-.45-24.15C144.18,506.14,165,533,171.9,544c33.28,55.12,86.43,39.63,107.67,30.07,3.24-23.7,12.94-39.64,23.57-48.75-82.27-9.11-168.2-40.55-168.2-179.95,0-39.64,14.33-72.44,37.87-97.95-3.66-9.11-16.63-46.47,3.7-96.58,0,0,31-9.57,101.69,37.35a353.4,353.4,0,0,1,184.85,0c70.69-47.38,101.66-37.35,101.66-37.35,20.33,50.11,7.4,87.47,3.7,96.58,23.54,25.51,37.88,57.85,37.88,97.95,0,139.86-86.42,170.84-168.67,180,13.4,11.39,24.94,33.26,24.94,67.42,0,48.75-.45,87.93-.45,100.23,0,9.57,6.94,21,25.42,17.31a369.85,369.85,0,0,0,182.34-133,361.36,361.36,0,0,0,69.51-212.83C739.38,163.1,574,0,369.69,0Z"/></svg>