<svg id="Calque_1" data-name="Calque 1" xmlns="http://www.w3.org/2000/svg" viewBox="0 0 710.94 739.37"><defs><style>.cls-1{fill:#00edb4;}</style></defs><path class="cls-1" d="M0,53C0,23.71,23.37,0,52.21,0H658.73c28.83,0,52.21,23.71,52.21,53V686.42c0,29.25-23.38,53-52.21,53H52.21c-28.84,0-52.21-23.7-52.21-53ZM219.63,619V285.07H113V619ZM166.31,239.47c37.19,0,60.35-25.61,60.35-57.68C226,149,203.55,124.12,167,124.12s-60.38,25-60.38,57.67c0,32.07,23.15,57.68,59,57.68ZM384.4,619V432.49c0-10,.71-20,3.55-27.08,7.69-19.92,25.24-40.57,54.74-40.57,38.61,0,54,30.59,54,75.5V619H603.41V427.45c0-102.59-52.61-150.28-122.82-150.28-56.6,0-82,32.35-96.19,55.13v1.16h-.72l.72-1.16V285.07H277.75c1.34,31.34,0,333.88,0,333.88Z"/></svg>