<svg id="Calque_1" data-name="Calque 1" xmlns="http://www.w3.org/2000/svg" viewBox="0 0 710.94 568.75"><defs><style>.cls-1{fill:#00edb4;}</style></defs><path class="cls-1" d="M2.22,73.7a96,96,0,0,1,31.22-53A85.52,85.52,0,0,1,88.87,0h533.2A85.54,85.54,0,0,1,677.5,20.68a96,96,0,0,1,31.22,53L355.47,304ZM0,127.83v336.7L257.84,295.89ZM300.41,323.71,8.47,514.58a93.12,93.12,0,0,0,32.85,39.51,84.69,84.69,0,0,0,47.55,14.66h533.2a84.87,84.87,0,0,0,47.55-14.69,93.11,93.11,0,0,0,32.79-39.53L410.47,323.67l-55,35.87Zm152.68-27.77L710.94,464.53V127.83L453.09,295.89Z"/></svg>